 <svg version="1.0" xmlns="http://www.w3.org/2000/svg" width="700.000000pt" height="1028.000000pt" viewBox="0 0 700.000000 1028.000000" preserveAspectRatio="xMidYMid meet">
<metadata>
Created by potrace 1.12, written by Peter Selinger 2001-2015
</metadata>
<g transform="translate(0.000000,1028.000000) scale(0.100000,-0.100000)" fill="#000000" stroke="none">
<path d="M4081 9433 c-30 -2 -64 -11 -75 -19 -11 -8 -30 -14 -43 -14 -12 0
-24 -4 -27 -9 -3 -5 -17 -12 -32 -15 -42 -11 -181 -102 -256 -168 -79 -71
-208 -220 -208 -241 0 -20 -15 -30 -80 -52 -30 -10 -75 -29 -99 -42 -24 -13
-48 -23 -53 -23 -6 0 -24 -6 -41 -14 -18 -8 -39 -17 -47 -20 -22 -10 -51 -28
-90 -56 -37 -27 -66 -45 -90 -56 -73 -35 -274 -227 -365 -349 -81 -110 -97
-135 -130 -210 -9 -22 -21 -47 -26 -55 -5 -8 -12 -22 -15 -30 -3 -8 -12 -28
-20 -43 -7 -16 -14 -38 -14 -48 0 -11 -5 -30 -11 -41 -6 -11 -15 -44 -19 -72
-31 -190 -38 -224 -44 -234 -4 -6 -11 -39 -16 -74 -5 -35 -17 -97 -25 -138 -9
-41 -19 -90 -23 -109 -6 -31 -12 -36 -62 -50 -44 -13 -68 -29 -117 -78 -35
-35 -63 -71 -63 -82 0 -10 -6 -24 -14 -30 -24 -20 -37 -178 -21 -253 7 -33 4
-40 -23 -65 -34 -32 -142 -164 -142 -175 0 -4 -13 -30 -29 -57 -17 -28 -33
-66 -37 -86 -3 -19 -10 -37 -14 -40 -4 -3 -16 -56 -25 -119 -18 -109 -18 -118
-1 -222 10 -60 22 -113 26 -119 4 -5 11 -25 15 -44 4 -19 19 -55 34 -80 15
-25 30 -53 33 -61 3 -8 30 -44 58 -79 l53 -64 -18 -49 c-21 -58 -22 -177 -3
-234 23 -65 86 -152 124 -170 19 -9 37 -21 41 -26 3 -6 -23 -39 -58 -74 -91
-89 -164 -173 -186 -214 -10 -19 -37 -63 -61 -98 -23 -35 -42 -67 -42 -72 0
-5 -6 -21 -14 -37 -34 -70 -46 -132 -46 -245 l0 -114 -56 -54 c-31 -30 -60
-64 -65 -75 -14 -28 -33 -61 -46 -76 -23 -30 -33 -148 -18 -217 8 -34 99 -136
138 -153 12 -5 40 -20 62 -34 22 -13 50 -24 61 -25 12 0 27 -7 34 -15 7 -8 23
-15 35 -15 12 0 28 -7 35 -15 7 -9 29 -15 54 -15 23 0 51 -7 62 -15 10 -8 36
-15 57 -15 21 0 47 -5 57 -10 11 -6 57 -15 102 -21 155 -18 193 -24 206 -32 7
-5 12 -29 12 -59 0 -44 9 -71 41 -128 5 -8 12 -22 16 -30 12 -28 74 -100 87
-100 7 0 25 -14 41 -30 16 -17 36 -30 45 -30 9 0 25 -7 36 -15 10 -8 31 -15
45 -15 20 0 54 -24 123 -87 l96 -88 0 -60 c0 -59 -18 -105 -42 -105 -9 0 -25
-6 -118 -47 -45 -19 -96 -41 -138 -59 -60 -25 -107 -46 -134 -60 -14 -8 -33
-14 -42 -14 -18 0 -49 -62 -101 -200 -10 -25 -23 -57 -31 -72 -8 -14 -14 -33
-14 -41 0 -9 -6 -28 -14 -44 -26 -50 -46 -101 -46 -115 0 -8 -4 -18 -9 -24 -5
-5 -18 -43 -30 -84 -13 -41 -26 -84 -31 -95 -28 -66 -85 -364 -72 -377 4 -4
25 -1 47 7 22 8 58 14 81 15 22 0 63 7 90 15 57 17 170 20 180 4 3 -6 2 -21
-3 -32 -16 -36 -34 -90 -43 -127 -4 -19 -14 -51 -20 -70 -7 -19 -18 -51 -25
-70 -7 -19 -18 -51 -25 -70 -25 -72 -33 -121 -20 -133 13 -14 40 15 40 44 0
10 4 21 10 24 6 3 10 18 10 33 1 15 7 38 15 52 8 14 14 34 15 45 0 11 7 33 15
49 8 15 15 35 15 43 0 8 6 29 13 46 8 18 22 59 32 92 9 33 23 76 30 95 7 19
18 51 25 70 7 19 15 49 18 65 2 17 11 39 18 50 8 11 14 29 14 41 0 12 7 35 15
50 8 16 15 36 15 45 0 9 7 30 15 45 8 16 15 36 15 45 0 23 29 89 38 89 5 0 18
-21 30 -48 12 -26 31 -60 42 -77 11 -16 24 -39 30 -50 6 -11 19 -33 30 -50 11
-16 23 -37 27 -45 3 -8 18 -31 33 -50 15 -19 30 -42 33 -50 4 -8 15 -27 25
-41 16 -26 121 -193 145 -234 7 -11 22 -34 34 -52 13 -17 23 -35 23 -40 0 -4
11 -21 24 -37 l23 -30 47 60 c46 57 153 215 230 339 21 33 66 105 102 160 35
55 67 107 71 115 4 8 26 43 50 77 24 35 43 66 43 69 0 3 12 21 26 40 15 19 35
49 44 67 10 18 23 32 29 32 11 0 50 -63 115 -190 15 -27 30 -57 35 -65 5 -8
12 -22 16 -30 3 -8 21 -42 40 -75 40 -70 114 -219 180 -360 26 -55 51 -108 56
-117 5 -10 9 -23 9 -29 0 -12 22 -66 46 -112 8 -16 14 -34 14 -41 0 -24 36
-48 57 -38 10 5 36 18 58 27 22 10 47 22 55 27 8 4 22 11 30 14 20 9 143 70
209 105 85 45 190 108 274 166 43 29 81 53 84 53 3 0 22 13 42 28 20 16 43 32
51 35 8 4 33 18 55 32 22 13 50 24 63 25 19 0 172 109 390 280 29 23 60 40 70
38 20 -4 48 -58 57 -108 4 -19 10 -44 15 -55 5 -11 11 -36 12 -55 3 -35 29
-53 48 -33 10 9 -5 80 -26 131 -8 18 -14 43 -14 56 0 13 -7 29 -15 36 -8 7
-15 20 -15 29 0 10 -13 27 -30 39 -16 13 -30 26 -30 30 0 5 30 32 68 60 37 29
85 67 106 86 l39 33 -17 33 c-9 18 -16 40 -16 49 0 9 -7 29 -15 45 -8 15 -15
36 -15 45 0 9 -7 29 -15 45 -8 15 -15 38 -15 50 -1 11 -7 32 -15 46 -8 14 -14
36 -15 48 0 13 -6 38 -14 55 -8 18 -16 43 -19 57 -6 33 -26 88 -43 122 -8 14
-14 34 -14 45 0 10 -7 27 -15 37 -8 11 -15 27 -15 36 0 21 -81 178 -119 231
-17 23 -31 47 -31 54 0 17 -51 63 -95 85 -32 16 -59 20 -146 20 -73 0 -110 4
-117 13 -5 6 -15 50 -21 97 -6 47 -15 112 -20 145 -26 163 -33 248 -38 460 -3
127 -9 237 -13 245 -15 29 35 89 75 90 24 0 145 118 145 142 0 8 7 21 15 28 8
7 15 20 15 30 0 10 6 23 14 29 11 9 28 128 27 186 -2 66 -16 157 -27 166 -8 6
-14 20 -14 31 0 11 -16 44 -36 73 -33 51 -58 75 -134 133 -18 15 -27 28 -23
35 8 12 25 124 43 277 18 149 23 161 144 289 136 145 162 154 136 48 -6 -23
-15 -148 -20 -277 -5 -129 -12 -261 -16 -292 -5 -48 -3 -59 10 -64 39 -15 45
10 49 209 2 106 9 255 15 332 15 200 17 290 5 290 -5 0 -40 -34 -78 -75 -120
-132 -177 -190 -186 -190 -12 0 -1 91 17 145 8 22 14 51 14 65 0 26 22 128 46
216 8 28 14 60 14 71 0 11 7 37 15 56 8 20 15 51 15 69 1 18 7 44 15 58 8 14
14 39 15 56 0 17 7 51 15 74 8 23 15 55 15 69 0 15 4 31 9 37 5 5 14 29 19 54
20 82 34 135 42 151 5 9 11 37 15 63 4 25 11 48 15 51 5 3 11 24 15 48 3 23
10 51 15 62 10 23 27 90 41 155 5 25 13 54 19 65 11 23 32 195 33 270 1 64
-22 245 -34 267 -5 9 -12 35 -15 58 -4 22 -11 43 -15 46 -5 3 -9 13 -9 23 0
17 -78 179 -110 227 -11 19 -11 35 0 107 8 51 10 112 7 149 -13 125 -27 211
-36 222 -4 6 -11 22 -14 36 -9 41 -33 100 -45 112 -7 7 -12 20 -12 29 0 9 -7
22 -15 29 -8 7 -15 18 -15 25 0 8 -34 50 -76 94 -51 54 -93 88 -129 106 -30
14 -57 30 -60 35 -3 6 -19 10 -34 10 -16 0 -45 7 -64 15 -48 20 -202 20 -237
0 -41 -24 -59 -18 -127 44 -64 58 -166 116 -268 154 -52 19 -230 29 -344 20z
m269 -48 c14 -8 37 -14 52 -15 60 0 288 -144 288 -181 0 -11 -7 -19 -16 -19
-9 0 -28 -6 -42 -13 -15 -8 -42 -21 -60 -30 -19 -9 -38 -17 -44 -17 -6 0 -27
-12 -47 -27 -43 -33 -64 -47 -110 -69 -29 -15 -41 -16 -92 -5 -134 27 -615 6
-682 -30 -23 -12 -107 -24 -107 -15 0 18 126 157 194 215 79 67 226 161 252
161 9 0 25 6 37 12 75 43 323 64 377 33z m719 -220 c53 -9 132 -47 188 -92 38
-31 133 -143 133 -157 0 -4 11 -24 25 -45 13 -22 27 -52 31 -68 4 -15 10 -32
14 -38 8 -10 25 -75 40 -155 5 -25 9 -93 9 -152 1 -114 -10 -142 -38 -97 -8
13 -67 77 -131 142 -91 94 -144 138 -252 210 l-136 91 -17 60 c-22 84 -70 186
-112 244 -43 58 -24 68 127 66 41 -1 95 -5 119 -9z m-297 -57 c13 -18 28 -40
31 -48 4 -8 18 -35 32 -59 14 -24 25 -52 25 -61 0 -10 7 -23 15 -30 16 -13 21
-65 7 -74 -4 -2 -37 10 -72 28 -78 38 -143 62 -190 71 -19 3 -44 10 -55 15
-11 4 -42 12 -70 16 -57 10 -73 37 -33 54 13 6 37 19 53 30 17 11 37 23 45 26
8 3 31 13 50 21 19 8 46 20 60 28 42 24 75 19 102 -17z m-671 -129 c30 -5 104
-14 164 -19 110 -9 175 -21 250 -46 23 -8 49 -14 59 -14 25 0 107 -28 181 -61
33 -14 78 -34 100 -44 22 -9 46 -24 53 -33 17 -23 16 -179 -3 -232 -8 -23 -15
-57 -15 -74 0 -17 -7 -40 -15 -50 -8 -11 -15 -30 -15 -42 0 -12 -7 -27 -15
-34 -17 -14 -20 -56 -4 -65 15 -10 46 22 52 53 3 15 18 61 32 102 22 60 27 98
30 190 5 132 11 140 73 93 20 -16 66 -49 102 -72 74 -49 240 -208 306 -293 49
-62 57 -108 29 -162 -8 -15 -15 -34 -15 -41 0 -6 -14 -31 -31 -54 -33 -46 -35
-76 -5 -76 21 0 79 99 91 155 4 16 10 30 14 30 13 0 38 -33 46 -59 4 -14 18
-45 31 -69 13 -25 24 -53 24 -63 0 -10 6 -33 14 -51 33 -80 46 -173 46 -332 0
-154 -9 -218 -42 -311 -5 -16 -14 -48 -18 -70 -13 -63 -32 -127 -46 -162 -8
-17 -14 -45 -14 -61 0 -17 -4 -33 -9 -36 -5 -3 -12 -27 -16 -53 -4 -27 -10
-52 -15 -58 -4 -5 -12 -30 -18 -55 -6 -25 -18 -72 -27 -105 -9 -33 -21 -82
-27 -110 -5 -27 -12 -57 -16 -65 -6 -17 -28 -111 -42 -183 -5 -26 -13 -62 -19
-80 -21 -69 -33 -125 -41 -182 -4 -33 -13 -73 -19 -88 -6 -16 -11 -43 -11 -61
0 -19 -7 -53 -15 -76 -8 -23 -15 -61 -15 -84 -1 -22 -9 -55 -18 -72 -22 -40
-168 -195 -176 -187 -3 4 -6 67 -6 142 0 75 -7 217 -15 316 -8 99 -15 210 -15
248 0 53 -3 67 -15 67 -8 0 -15 -8 -16 -17 0 -10 -10 -37 -22 -60 -12 -24 -48
-93 -80 -155 -32 -62 -62 -120 -67 -128 -4 -8 -26 -51 -48 -95 -22 -44 -76
-152 -121 -239 -77 -150 -91 -194 -65 -203 7 -2 59 89 119 209 59 117 141 279
181 359 41 81 74 152 74 159 0 6 6 10 13 8 9 -4 14 -65 20 -234 10 -332 20
-479 32 -479 6 0 48 42 94 93 98 109 116 111 88 8 -9 -35 -17 -84 -18 -108 0
-23 -6 -70 -13 -103 l-13 -60 -43 2 c-24 1 -48 7 -54 13 -15 15 -88 12 -164
-7 -57 -14 -75 -24 -119 -69 -29 -29 -57 -63 -63 -76 -5 -13 -15 -31 -22 -40
-10 -13 -10 -20 -1 -29 17 -17 41 -4 55 28 21 47 60 94 101 120 36 23 45 24
145 20 136 -6 166 -13 224 -52 55 -37 100 -90 129 -154 12 -25 25 -53 30 -63
15 -30 21 -162 10 -222 -6 -33 -20 -78 -31 -101 -11 -23 -20 -46 -20 -51 -1
-25 -110 -123 -165 -148 -33 -15 -68 -31 -77 -37 -27 -14 -118 -11 -168 7 -24
8 -65 31 -91 50 -50 37 -74 42 -82 19 -7 -16 76 -81 133 -105 19 -8 72 -15
118 -16 46 0 87 -5 92 -10 5 -5 11 -92 13 -194 5 -209 22 -452 36 -520 11 -50
28 -155 41 -241 4 -30 12 -71 18 -90 15 -48 33 -127 41 -174 4 -22 13 -50 19
-62 7 -12 10 -28 7 -35 -5 -12 -68 -56 -115 -80 -8 -5 -28 -17 -45 -28 -16
-11 -39 -24 -50 -30 -11 -6 -32 -18 -46 -28 -15 -9 -48 -30 -75 -46 -27 -16
-60 -36 -74 -45 -35 -24 -382 -190 -515 -246 -16 -7 -47 -20 -68 -29 -21 -9
-44 -16 -51 -16 -8 0 -27 -7 -42 -15 -16 -8 -39 -15 -51 -15 -12 0 -24 -4 -28
-9 -3 -5 -20 -13 -37 -17 -18 -3 -39 -10 -48 -14 -8 -5 -44 -18 -80 -30 -100
-34 -150 -59 -157 -78 -4 -9 -14 -28 -24 -42 -22 -32 -150 -230 -164 -252 -15
-27 -138 -216 -245 -378 -52 -80 -97 -149 -100 -155 -17 -34 -62 -95 -69 -95
-14 0 -131 179 -131 199 0 5 -9 16 -20 26 -11 10 -20 23 -20 28 0 6 -11 25
-25 43 -14 18 -25 36 -25 40 0 4 -7 15 -15 24 -8 9 -25 35 -37 57 -13 22 -40
68 -61 102 l-39 62 16 71 c9 39 16 96 17 127 0 31 5 81 10 111 5 30 14 107 19
172 5 64 13 133 19 155 6 21 11 86 11 145 0 58 3 113 6 121 5 13 22 7 92 -29
48 -25 91 -49 96 -55 6 -5 19 -9 30 -9 11 0 38 -6 61 -14 171 -60 354 -60 546
0 26 8 56 14 67 14 11 0 25 7 32 15 7 8 19 15 27 15 8 0 27 6 41 14 15 8 34
17 42 20 8 4 29 15 45 26 17 11 37 23 45 27 44 20 177 133 258 218 83 88 168
201 192 258 6 12 21 40 35 62 13 22 24 49 25 60 0 12 4 25 9 30 14 16 39 102
60 210 23 118 26 267 5 307 -8 15 -14 47 -14 71 0 27 -6 49 -15 57 -8 7 -15
22 -15 34 0 12 -7 31 -15 42 -8 10 -15 25 -15 32 -1 45 -167 262 -262 342
-126 108 -296 210 -478 287 -19 8 -48 21 -65 28 -16 7 -57 20 -90 30 -33 10
-78 24 -100 31 -23 8 -47 14 -54 14 -7 0 -27 6 -44 14 -18 8 -52 17 -77 19
-44 5 -96 16 -190 39 -25 6 -76 15 -115 19 -38 3 -115 12 -170 18 -55 6 -143
16 -195 22 -52 6 -216 13 -365 16 l-270 6 -45 33 c-60 43 -108 111 -126 179
-16 65 -19 141 -4 150 5 3 10 20 10 36 0 34 64 126 108 156 83 55 89 56 237
55 77 -1 167 -7 200 -12 33 -6 116 -15 185 -20 69 -5 159 -14 200 -19 41 -6
103 -10 137 -11 59 0 63 -2 78 -30 24 -47 140 -174 196 -217 93 -68 214 -133
251 -133 10 0 33 -7 51 -17 47 -24 377 -24 424 0 18 9 41 17 51 17 40 0 195
85 274 150 73 61 161 167 187 227 6 12 22 40 36 62 14 22 25 50 25 61 0 12 5
31 12 43 7 12 19 72 29 132 14 96 14 122 3 205 -20 143 -43 211 -112 333 -65
114 -181 229 -299 293 -26 15 -52 30 -58 34 -5 4 -41 18 -80 30 -38 12 -81 27
-93 33 -40 19 -326 13 -392 -8 -105 -33 -145 -49 -182 -72 -21 -13 -42 -23
-48 -23 -11 0 -141 -107 -153 -127 -4 -7 -17 -18 -28 -23 -17 -10 -26 -4 -66
40 -25 28 -72 71 -104 96 -67 52 -204 124 -234 124 -11 0 -30 6 -41 14 -36 25
-221 40 -337 26 -56 -6 -106 -15 -112 -20 -5 -4 -27 -11 -48 -15 -21 -4 -57
-18 -80 -31 -118 -65 -139 -74 -149 -68 -7 4 -9 38 -5 98 4 75 10 101 35 151
35 68 101 129 152 140 71 16 94 45 110 146 5 30 16 86 24 124 8 39 22 106 31
150 9 44 21 114 26 155 5 41 14 84 19 95 4 11 11 35 14 53 5 31 29 89 84 202
15 30 29 62 32 70 3 8 42 65 87 125 55 74 119 143 193 210 61 55 117 102 123
105 7 3 50 30 97 60 72 47 189 110 205 110 3 0 33 13 67 28 103 46 171 67 300
92 26 5 56 13 67 19 11 6 53 11 93 12 40 0 109 6 153 14 104 16 131 17 196 4z
m-1481 -2080 c25 -6 60 -13 78 -16 18 -3 35 -9 38 -14 3 -5 12 -9 21 -9 54 0
255 -137 321 -219 37 -47 39 -59 12 -94 -11 -14 -20 -28 -20 -31 0 -4 -10 -23
-23 -44 -13 -20 -32 -62 -42 -92 -9 -30 -24 -75 -33 -100 -11 -32 -15 -85 -15
-190 0 -145 10 -204 49 -297 8 -17 14 -38 14 -46 0 -19 -23 -28 -41 -16 -8 5
-63 9 -124 10 -60 0 -135 5 -165 10 -30 5 -113 13 -185 19 -71 5 -154 14 -184
19 -74 15 -122 14 -164 -4 -20 -8 -46 -15 -57 -15 -21 0 -111 -63 -142 -99
-10 -11 -24 -18 -32 -15 -35 14 -118 145 -149 240 -44 130 -47 147 -47 262 0
99 4 130 26 197 49 153 90 221 194 325 57 56 116 105 145 119 28 14 57 30 65
36 16 12 92 37 180 59 65 17 216 20 280 5z m1287 -40 c43 -5 92 -17 110 -25
17 -7 38 -14 46 -14 8 0 41 -14 73 -32 32 -17 68 -36 79 -42 76 -41 228 -208
264 -293 6 -11 15 -24 20 -28 6 -3 11 -15 11 -25 0 -11 6 -34 14 -52 43 -103
48 -136 44 -283 -2 -97 -7 -148 -16 -157 -6 -6 -12 -22 -12 -35 0 -20 -19 -74
-41 -113 -4 -8 -20 -37 -35 -65 -48 -91 -186 -230 -276 -281 -157 -86 -333
-126 -477 -106 -106 15 -195 38 -241 63 -8 4 -35 18 -60 30 -65 32 -158 108
-223 183 -142 161 -206 376 -178 599 7 55 19 113 27 128 8 16 14 37 14 49 0
11 4 28 9 38 77 143 157 246 241 307 69 51 189 115 214 115 12 0 31 7 43 15
42 29 221 42 350 24z m-1287 -1788 c102 -6 218 -16 258 -22 40 -6 107 -14 150
-19 89 -10 189 -26 247 -39 22 -5 74 -17 115 -26 122 -26 227 -59 425 -132 36
-13 168 -77 235 -115 63 -34 176 -115 227 -162 197 -179 302 -378 322 -608 9
-107 -1 -265 -20 -299 -5 -10 -9 -28 -9 -41 0 -13 -7 -36 -15 -52 -8 -15 -15
-32 -15 -37 0 -22 -75 -166 -129 -245 -241 -359 -654 -571 -1024 -525 -128 16
-179 31 -292 87 -111 54 -178 102 -275 193 -41 39 -83 74 -95 77 -89 26 -211
110 -252 174 -33 51 -65 151 -53 170 5 8 73 13 246 15 318 4 631 20 674 34 19
6 49 11 67 11 59 0 282 50 360 81 32 13 34 12 67 -24 18 -20 39 -37 45 -37 18
0 24 29 10 46 -15 18 -26 38 -59 102 -25 49 -43 60 -65 42 -12 -10 -12 -16 -4
-26 52 -62 -137 -112 -581 -153 -275 -26 -764 -29 -850 -6 -30 8 -73 15 -96
15 -23 0 -54 4 -70 10 -16 5 -56 14 -89 20 -149 24 -342 85 -433 138 -97 56
-142 122 -142 209 0 79 36 151 127 258 l66 77 2 131 c1 122 4 137 31 202 40
93 131 232 213 325 124 140 137 152 172 160 43 11 270 7 509 -9z m2871 -1787
c62 -20 85 -45 69 -73 -6 -12 -14 -21 -18 -21 -9 0 -164 -118 -172 -130 -3 -5
-11 -10 -18 -12 -14 -3 -52 90 -52 126 0 11 -7 39 -16 63 -27 69 -18 77 78 69
45 -4 103 -14 129 -22z m129 -136 c6 -13 19 -36 29 -53 11 -16 29 -50 41 -75
12 -25 28 -57 36 -72 8 -14 14 -33 14 -41 0 -8 7 -28 15 -43 8 -16 15 -36 15
-44 0 -9 4 -20 8 -25 10 -12 39 -102 92 -285 11 -41 25 -82 29 -90 5 -9 12
-30 16 -49 4 -18 13 -44 21 -59 27 -52 19 -66 -81 -149 -53 -43 -121 -100
-153 -126 -31 -26 -93 -75 -137 -110 -44 -34 -123 -95 -175 -137 -52 -42 -140
-105 -195 -141 -55 -36 -147 -97 -205 -135 -58 -38 -125 -80 -150 -93 -25 -13
-72 -39 -105 -57 -33 -18 -80 -42 -105 -54 -25 -12 -82 -40 -127 -62 -84 -42
-113 -44 -113 -9 0 11 -4 23 -10 26 -5 3 -10 13 -10 22 0 8 -7 31 -16 51 -8
21 -22 52 -29 70 -8 18 -21 47 -29 65 -8 17 -17 39 -20 47 -3 8 -10 22 -15 30
-5 8 -40 76 -76 150 -64 128 -80 158 -170 325 -21 39 -48 88 -60 110 -11 22
-33 61 -49 87 l-28 47 34 21 c18 11 41 20 51 20 11 0 31 6 45 14 33 16 85 35
131 46 18 5 38 13 44 19 6 6 22 11 37 11 14 0 34 7 44 15 11 8 29 15 41 15 12
0 30 7 41 15 10 8 29 15 40 15 12 0 27 7 34 15 7 8 17 15 24 15 6 0 40 14 76
31 36 17 88 42 115 54 131 60 253 121 285 143 19 13 44 28 55 33 11 5 34 18
50 29 17 11 39 24 50 30 11 6 34 19 50 29 17 11 48 29 69 41 38 21 276 199
346 259 42 36 67 39 80 9z m-2737 -470 c2 -7 1 -20 -3 -28 -4 -8 -10 -62 -13
-120 -4 -58 -11 -121 -17 -140 -5 -19 -10 -65 -10 -102 0 -36 -7 -102 -15
-145 -8 -43 -15 -93 -15 -110 0 -35 -16 -44 -27 -15 -4 9 -18 35 -31 56 -13
22 -24 50 -24 63 0 13 -8 28 -18 33 -10 5 -25 24 -34 42 -9 18 -21 40 -26 48
-5 8 -11 22 -14 30 -3 8 -10 22 -15 30 -5 8 -19 36 -31 62 -12 27 -26 50 -31
54 -5 3 -9 13 -9 23 0 10 -7 24 -15 31 -20 17 -19 49 3 56 9 3 40 16 67 29 28
13 68 31 90 40 70 29 109 46 135 60 33 17 47 18 53 3z m-310 -360 c78 -157 95
-199 90 -223 -3 -16 -9 -34 -13 -40 -5 -5 -11 -27 -15 -48 -4 -20 -11 -39 -15
-42 -5 -3 -11 -23 -15 -45 -4 -22 -10 -42 -15 -45 -5 -3 -11 -23 -15 -45 -4
-22 -11 -42 -16 -46 -5 -3 -9 -14 -9 -26 0 -11 -6 -34 -14 -51 -7 -18 -17 -50
-22 -72 l-9 -40 -65 -2 c-36 -1 -99 -7 -140 -13 -41 -6 -97 -14 -123 -17 l-48
-5 6 54 c4 29 11 67 16 83 6 17 14 50 19 75 4 25 12 59 18 75 6 17 15 46 22
65 7 19 14 46 17 60 2 14 11 39 18 55 35 78 45 104 45 118 0 9 4 18 9 21 5 3
12 18 15 33 6 25 21 61 47 115 5 10 9 23 9 28 0 10 15 47 56 138 29 62 44 46
147 -160z"></path>
<path d="M5118 5006 c-64 -17 -111 -51 -159 -114 -45 -59 -64 -127 -35 -121
10 2 30 27 45 54 35 63 59 69 95 22 14 -18 29 -48 32 -66 4 -17 11 -34 15 -37
5 -3 9 -28 9 -55 0 -36 4 -51 16 -56 8 -3 19 -2 24 3 10 11 -6 144 -20 158 -5
5 -10 17 -10 24 0 8 -16 35 -36 59 -37 45 -39 73 -7 73 39 0 98 28 98 46 0 23
-11 25 -67 10z"></path>
<path d="M1934 6236 c-40 -40 -44 -79 -11 -117 35 -41 76 -53 118 -35 76 32
91 104 34 155 -50 44 -95 43 -141 -3z"></path>
<path d="M3719 6163 c-39 -24 -53 -71 -34 -117 9 -20 23 -39 33 -42 9 -3 26
-10 37 -15 31 -15 89 14 113 55 19 33 20 39 7 69 -26 62 -99 86 -156 50z"></path>
</g>
</svg>